<?xml version="1.0" encoding="UTF-8"?>
<svg version="1.1" viewBox="0 0 2048 2048" width="512" height="512" xmlns="http://www.w3.org/2000/svg">
<path transform="translate(720,31)" d="m0 0h35l44 1 63 3 50 4 54 6 55 8 44 8 48 11 34 9 38 12 30 11 30 13 24 12 20 12 17 12 11 9 10 9 10 10 10 13 9 15 6 15 3 14 1 8 1 562h37l15 1 9 4 8 7 6 10 18 47 11 28 2 3 25 8 25 9 26 11 27 13 15 8 5-1 29-13 45-20 7-2h12l12 5 15 14 97 97 8 10 4 11v9l-4 13-14 31-9 21-7 15-2 5 1 5 15 29 13 29 11 30 9 29 42 16 38 15 9 6 6 7 4 9 1 11v143l-1 16-3 8-7 9-10 6-20 8-39 15-19 7-3 8-12 36-10 25-12 26-13 25 1 5 19 43 14 32 2 8-1 13-6 11-14 15-97 97-11 7-5 2h-17l-25-11-43-19-11-5h-5l-14 8-23 11-23 10-27 10-31 10-16 42-13 33-5 10-7 8-10 5-6 1h-165l-11-4-8-7-8-15-19-50-9-23-25-8-28-10-23-10-16-7-19-10-7-4-7 1-40 18-32 14-6 2-9 1-10-2-8-4-9-9-6-5-7-8-94-94-6-11-1-5v-8l5-15 18-40 13-30-1-6-10-18-10-21h-14l-44 2h-124l-74-4-54-5-50-6-45-7-42-8-28-6-48-12-30-9-26-9-28-11-26-12-25-13-19-12-13-10-11-9-11-10-9-11-9-12-7-12-5-13-4-16-1-11v-1164l3-19 4-12 8-16 8-12 8-10h2l2-4 8-8 8-7 13-10 18-12 23-13 29-14 33-13 36-12 31-9 54-13 57-11 63-9 46-5 51-4 38-2zm-46 66-43 2-65 5-46 5-54 8-47 9-39 9-30 8-35 11-20 7-28 11-21 10-21 12-17 12-11 9-7 7-9 12-5 12-1 10 4 13 8 12 10 11 14 11 10 7 19 11 17 9 31 13 34 12 33 10 27 7 39 9 56 10 50 7 45 5 51 4 36 2 30 1h99l46-2 47-3 43-4 56-7 49-8 40-8 48-12 34-10 32-11 29-12 17-8 23-13 16-11 13-11 7-7 9-13 4-12v-10l-5-13-8-11-8-9-14-11-15-10-14-8-23-12-27-11-28-10-29-9-33-9-45-10-37-7-38-6-48-6-42-4-41-3-49-2zm-499 260v282l2 10 5 10 7 9 9 10 14 11 22 14 19 10 27 12 15 6 43 14 27 8 47 11 46 9 60 9 55 6 50 4 40 2 30 1h96l49-2 56-4 41-4 46-6 43-7 45-9 52-13 27-8 27-9 28-11 20-9 21-11 19-12 11-9 10-9 8-9 6-10 3-11v-284l-5 2-25 15-23 12-22 10-26 10-38 13-36 10-28 7-42 9-34 6-46 7-42 5-41 4-41 3-37 2-28 1h-99l-49-2-59-4-49-5-39-5-50-8-50-10-50-12-43-13-31-11-29-12-25-12-23-13-15-10zm0 385v282l2 10 6 12 9 11 13 12 17 12 18 10 17 9 25 11 21 8 31 10 43 12 44 10 43 8 53 8 53 6 51 4 64 3 43 1h26l62-2 39-2 11-1 5-5 8-15-1-7-18-40-16-37-1-5v-8l3-10 8-11 108-108 10-6 6-2h12l11 4 72 32 4-1 32-16 24-11 29-11 32-10 4-6 18-47 11-28 6-9 7-6 7-3 6-1 47-1 1-1v-64l-5 2-21 13-20 11-24 11-28 11-22 8-32 10-38 10-50 11-44 8-47 7-52 6-47 4-55 3-28 1h-101l-51-2-67-5-39-4-38-5-45-7-52-10-49-12-28-8-36-12-19-7-19-8-24-11-24-13-19-12zm1105 131-3 3-14 37-13 33-6 11-6 5-12 5-25 7-30 10-24 10-27 13-21 12-12 6-12 2-9-2-20-9-52-23-5 1-12 12v2l-4 2-59 59 1 5 14 32 15 34 3 9v14l-5 12-12 21-14 28-12 29-11 34-6 22-6 11-8 6-14 6-52 20-12 5v111l39 15 33 13 9 5 5 5 5 8 7 24 12 36 9 22 7 15 8 16 11 20 6 12 1 3v14l-6 16-20 45-7 15 1 4 7 8h2l2 4h2l2 4h2l2 4h2l2 4h2l2 4h2l2 4h2l1 3 5 5h2l2 4h2l2 4h2l1 3 7 6 6 7h2l2 4h2l1 3 6 5 9-3 40-18 26-11 7-2h7l10 3 15 8 18 10 22 11 27 11 36 12 21 6 10 5 5 5 5 8 11 27 14 37 4 10h111l8-20 14-37 8-19 6-9 9-6 12-4 25-7 24-8 26-11 27-13 21-12 10-5 7-2h8l15 5 60 27 7 2 4-3v-2l4-2 7-8 7-6v-2h2v-2h2v-2h2v-2h2v-2h2v-2h2v-2h2v-2h2v-2h2v-2h2v-2h2v-2h2v-2h2v-2h2v-2h2v-2h2v-2h2v-2h2v-2h2v-2h2v-2h2l4-5 4-3v-2l4-2 1-4-13-30-14-31-6-16v-13l4-11 12-21 9-17 12-27 9-24 9-29 6-20 5-9 6-5 12-6 50-19 16-6 2-2v-110l-38-15-36-14-9-6-6-7-5-13-7-25-10-29-11-26-10-21-13-23-7-15v-13l5-15 12-26 13-30 3-7-1-4-75-75-6 1-45 20-23 10-12 3-12-2-20-11-18-10-23-11-25-10-33-11-22-6-10-5-7-7-9-20-15-40-8-20-2-1zm-1105 254v283l3 12 7 12 12 13 12 10 10 7 22 13 29 14 30 12 37 12 40 11 39 9 41 8 52 8 50 6 47 4 49 3 22 1h118l26-1 12-1-3-12-11-5-57-22-15-6-9-7-5-8-2-6-1-7v-157l2-9 5-9 8-7 16-7 52-20 15-6 3-4 8-26v-2h-19l-25 1h-113l-66-3-59-5-60-7-57-9-40-8-51-12-35-10-44-15-29-12-29-14-21-12-12-8z"/>
<path transform="translate(1329,1056)" d="m0 0 32 1 25 3 28 5 28 8 23 8 24 11 23 12 19 12 14 10 14 11 21 18 4 4v2h2v2h2l7 8 12 13 13 17 10 14 13 21 15 29 11 27 9 29 6 27 3 19 2 22v46l-2 23-5 29-7 28-9 26-9 21-11 22-12 20-11 16-6 8-11 14-13 14-1 2h-2v2h-2l-2 4-15 14-13 11-17 13-15 10-20 12-23 12-19 8-36 12-31 7-30 4-13 1h-43l-29-3-27-5-23-6-26-9-26-11-21-11-18-11-16-11-13-10-13-11-12-11-19-19-9-11-12-15-11-16-10-16-10-18-10-21-11-29-7-24-6-29-4-33-1-30 2-32 4-28 6-27 8-26 11-28 13-26 14-23 14-20 11-13 9-11 14-15 5-5h2v-2l8-7 13-11 16-12 21-14 25-14 24-11 24-9 24-7 28-6 32-4zm-19 66-25 3-24 5-26 8-26 11-21 11-16 10-19 14-14 12-26 26-11 14-10 14-10 16-9 16-9 20-8 22-8 30-4 26-1 12v42l3 25 5 24 6 21 9 24 8 17 10 18 10 15 12 16 12 14 12 13 8 7 10 9 17 13 17 11 16 9 16 8 25 10 24 7 25 5 27 3h38l26-3 25-5 29-9 22-9 25-13 17-11 14-10 13-11 8-7 9-8 7-8 10-11 8-10 12-17 11-19 8-16 8-18 10-30 5-23 3-20 1-12v-41l-3-27-6-27-8-26-9-22-10-19-10-17-12-17-13-16-11-12-12-12-11-9-15-12-20-13-22-12-20-9-22-8-27-7-26-4-11-1z"/>
<path transform="translate(314,1248)" d="m0 0h29l15 3 16 6 16 9 10 8 8 7 11 14 7 11 8 20 3 14 1 7v19l-3 18-4 12-8 17-10 14-8 9-14 11-10 6-15 7-19 5-18 2-21-2-17-5-16-7-13-9-10-9-9-9-10-15-8-17-4-14-2-13v-20l3-17 5-15 7-14 10-14 9-10 11-9 11-7 12-6 16-5zm5 65-11 4-11 8-1 3h-2l-6 10-3 9-1 6v9l3 11 5 10 4 5h2v2l11 7 8 3 4 1h15l12-4 9-6 8-8 6-12 2-11-1-13-5-13-8-10-10-7-12-4z"/>
<path transform="translate(313,859)" d="m0 0h31l18 4 18 8 16 10 13 12 13 17 10 21 4 15 2 12v19l-3 18-5 15-9 17-10 13-10 10-11 9-19 10-15 5-16 3h-24l-16-3-19-7-14-8-11-9-12-12-10-14-9-19-4-14-2-13v-20l3-17 4-13 8-16 9-13 3-4h2l2-4 11-10 14-9 14-7 13-4zm15 64-13 2-12 6-8 7-7 11-3 9-1 6v9l3 11 5 10 5 6 10 7 10 4 5 1h12l9-2 10-5 10-9 6-9 3-9 1-14-3-13-6-10-7-8-10-6-9-3z"/>
<path transform="translate(314,470)" d="m0 0h29l15 3 14 5 15 8 12 9 9 8 11 14 7 11 8 20 3 14 1 8v18l-3 18-4 12-4 9-6 11-9 12-5 6-8 7-13 9-15 8-15 5-17 3h-23l-16-3-19-7-14-8-11-9-12-12-10-14-9-19-4-14-2-13v-20l3-17 6-18 6-11 9-13 10-11 8-7 15-10 16-7 15-4zm5 65-11 4-9 6-9 11-5 13-1 5v10l3 12 6 10 4 5 10 7 10 4 4 1h13l9-2 12-6 10-10 5-10 2-6 1-14-3-13-7-12-9-8-12-6-4-1z"/>
<path transform="translate(1219,1278)" d="m0 0h10l11 4 8 7 4 5 4 9v15l-6 12-5 6-11 9-28 24-11 9-14 12-11 9-13 11-3 2 12 11 11 9 14 12 13 11 11 9 13 11 14 12 6 5 6 9 2 6v15l-6 12-7 7-8 4-6 2h-11l-10-4-12-9-10-9-11-9-14-12-13-11-11-9-14-12-11-9-15-13-11-9-10-10-4-7-2-9 1-11 6-12 7-7 11-9 15-13 11-9 14-12 11-9 14-12 26-22 14-12 11-7z"/>
<path transform="translate(1438,1278)" d="m0 0h10l11 4 11 8 15 13 13 11 11 9 15 13 11 9 14 12 11 9 14 12 11 9 7 8 4 9 1 11-2 8-5 10-7 7-10 8-15 13-11 9-14 12-11 9-14 12-11 9-15 13-11 9-12 9-11 4h-10l-11-4-10-9-5-10-1-3v-13l4-10 6-8 13-11 15-13 11-9 14-12 11-9 15-13 11-9v-3l-11-10-11-9-15-13-11-9-15-13-11-9-14-12-8-9-4-10v-13l5-12 5-6 10-6z"/>
<path transform="translate(1295,1241)" d="m0 0 13 2 11 7 6 8 5 14 15 56 20 75 11 40 11 42 16 59v14l-4 9-6 8-7 5-8 3h-15l-9-4-7-5-5-7-4-10-20-75-22-82-26-97-6-23v-12l3-9 7-9 9-6z"/>
</svg>
